<svg version="1.1" xmlns="http://www.w3.org/2000/svg" viewBox="-708.1067821865475 -641.023599470099 1416.213564373095 1282.0471989401979" fill="none" stroke="black" stroke-width="0.6%" vector-effect="non-scaling-stroke">
    <path d="M 671.75144 12.24745 L 466.69048 -106.14456 L 466.69048 -97.97959 L 466.69048 -89.81462" />
    <path d="M 671.75144 28.57738 L 671.75144 12.24745" />
    <path d="M 671.75144 28.57738 L 466.69048 -89.81462" />
    <path d="M 388.82836 -151.09827 L 360.62446 -167.3818 L 346.48232 -159.21683 L 141.42136 -277.60884 L 141.42136 -318.35201 L 134.35029 -322.43449 A 500 288.67513 300 0 0 -103.52864 -71.31929" />
    <path d="M 395.9798 -146.96938 L 431.26442 -167.34097" />
    <path d="M 459.53903 -110.27344 L 395.9798 -146.96938" />
    <path d="M 466.69048 -106.14456 L 501.9751 -126.51614" />
    <path d="M 707.10678 -8.16497 L 671.75144 12.24745" />
    <path d="M 360.62446 -208.20663 L 385.6056 -193.78376" />
    <path d="M 431.26297 -167.42347 L 456.31627 -152.95893" />
    <path d="M 501.97365 -126.59864 L 707.10678 -8.16497" />
    <path d="M 707.10678 8.16497 L 707.10678 -8.16497" />
    <path d="M 707.10678 8.16497 L 671.75144 28.57738" />
    <path d="M 388.83185 -134.76632 L 346.48232 -159.21683" />
    <path d="M 459.54253 -93.94149 L 395.9798 -130.63945 L 395.9798 -138.80442 A 450 259.80762 300 0 0 335.34195 -319.55038" />
    <path d="M 466.69048 -97.97959 A 450 259.80762 300 0 0 373.49242 -303.97929 A 450 259.80762 300 0 0 194.22196 -304.27915" />
    <path d="M 482.4649 -241.064 A 500 288.67513 120 0 1 501.9751 -126.51614" />
    <path d="M 373.49242 215.63595 A 450 259.80762 300 0 0 466.69048 -97.97959" />
    <path d="M 378.49242 206.9757 L 373.49242 215.63595 L 368.49242 224.29621" />
    <path d="M 499.75977 -70.72206 A 500 288.67513 120 0 1 403.44242 221.38058" />
    <path d="M 286.64325 -325.01638 A 450 259.80762 120 0 1 314.89492 -234.60859" />
    <path d="M 348.62751 -298.56156 A 500 288.67513 120 0 1 360.55229 -208.24829" />
    <path d="M 321.96599 -230.52611 A 450 259.80762 300 0 0 291.38184 -325.0589" />
    <path d="M 331.21495 -320.56719 A 450 259.80762 120 0 1 388.90873 -142.8869 A 450 259.80762 120 0 1 295.71068 170.72864 A 450 259.80762 120 0 1 70.71068 408.24829 A 450 259.80762 120 0 1 -112.01185 447.12416" />
    <path d="M 419.33819 -257.73673 A 500 288.67513 120 0 1 431.26442 -167.34097" />
    <path d="M 395.9798 -138.80442 L 395.9798 -146.96938" />
    <path d="M 369.92911 -305.97242 A 450 259.80762 120 0 1 459.61941 -102.06207 A 450 259.80762 120 0 1 366.42136 211.55347 A 450 259.80762 120 0 1 141.42136 449.07312 A 450 259.80762 120 0 1 -80.01533 473.35422" />
    <path d="M 318.12117 -175.59115 A 450 259.80762 120 0 1 225 129.90381 A 450 259.80762 120 0 1 6.99419 363.29659" />
    <path d="M 358.33842 -152.37171 A 500 288.67513 120 0 1 262.02106 139.73093" />
    <path d="M 232.07107 133.98629 A 450 259.80762 300 0 0 325.19224 -171.50867" />
    <path d="M 232.07107 133.98629 L 237.07107 125.32604" />
    <path d="M 429.0491 -111.54688 A 500 288.67513 120 0 1 332.73174 180.55575" />
    <path d="M 302.78175 174.81112 A 450 259.80762 300 0 0 395.9798 -138.80442" />
    <path d="M 302.78175 174.81112 L 307.78175 166.15087" />
    <path d="M 608.55339 -226.00181 L 583.55339 -182.70054 L 573.55339 -188.47404 L 368.49242 -306.86604 L 393.44242 -350.0807 L 386.37135 -354.16318 A 500 288.67513 300 0 0 148.56459 -330.63945" />
    <path d="M 148.49242 453.1556 A 450 259.80762 300 0 0 373.49242 215.63595" />
    <path d="M 141.49823 -277.56445 A 450 259.80762 300 0 0 -71.45201 -52.79984" />
    <path d="M -81.45201 -35.47934 A 450 259.80762 300 0 0 -169.62875 261.32329" />
    <path d="M -166.40249 320.34073 A 450 259.80762 300 0 0 -76.50758 475.44357 A 450 259.80762 300 0 0 148.49242 453.1556 L 141.42136 457.23809 L 141.42136 497.98126 A 500 288.67513 120 0 1 32.4649 538.35886" />
    <path d="M 583.55339 325.3677 L 378.49242 206.9757" />
    <path d="M 573.55339 342.68821 L 583.55339 325.3677" />
    <path d="M 573.55339 342.68821 L 368.49242 224.29621" />
    <path d="M 229.94444 121.21148 L 133.55339 65.56008 L 123.55339 82.88059" />
    <path d="M 300.65512 162.03631 L 237.07107 125.32604" />
    <path d="M 371.36579 202.86114 L 307.78175 166.15087" />
    <path d="M 608.55339 339.80146 L 583.55339 325.3677" />
    <path d="M 14.06526 367.37908 A 450 259.80762 300 0 0 232.07107 133.98629" />
    <path d="M 162.02989 -406.29375 A 450 259.80762 300 0 0 52.80061 -385.92881" />
    <path d="M 0.07688 -359.21411 A 450 259.80762 300 0 0 -212.87337 -134.4495" />
    <path d="M -222.87337 -117.12899 A 450 259.80762 300 0 0 -311.05011 179.67363" />
    <path d="M -307.82385 238.69107 A 450 259.80762 300 0 0 -270.84576 343.46887" />
    <path d="M -135.81835 414.87353 A 450 259.80762 300 0 0 -38.65847 394.09378" />
    <path d="M -45.72954 390.01129 A 450 259.80762 120 0 1 -138.15082 410.74852" />
    <path d="M 116.02753 -452.62672 L -133.55339 -596.72233 L -108.55339 -640.0236 L 598.55339 -231.77531 L 573.55339 -188.47404" />
    <path d="M 77.78175 412.33077 A 450 259.80762 300 0 0 302.78175 174.81112" />
    <path d="M 232.74056 -365.46892 A 450 259.80762 300 0 0 123.51129 -345.10398" />
    <path d="M 70.78756 -318.38928 A 450 259.80762 300 0 0 -142.16269 -93.62467" />
    <path d="M -152.16269 -76.30417 A 450 259.80762 300 0 0 -240.33943 220.49846" />
    <path d="M -237.11317 279.5159 A 450 259.80762 300 0 0 -200.13508 384.2937" />
    <path d="M -109.06778 450.18983 A 450 259.80762 300 0 0 77.78175 412.33077 L 84.85281 408.24829" />
    <path d="M 219.94444 138.53199 L 123.55339 82.88059" />
    <path d="M 290.65512 179.35681 L 227.07107 142.64655 L 232.07107 133.98629" />
    <path d="M 361.36579 220.18164 L 297.78175 183.47138 L 302.78175 174.81112" />
    <path d="M 608.55339 -226.00181 L 598.55339 -231.77531" />
    <path d="M 252.02106 -431.73036 L 244.94999 -435.81284 A 500 288.67513 300 0 0 7.14324 -412.28911" />
    <path d="M 242.46367 -415.17647 L 252.02106 -431.73036" />
    <path d="M 322.73174 -390.90553 L 315.66067 -394.98801 A 500 288.67513 300 0 0 77.85391 -371.46428" />
    <path d="M 313.17435 -374.35164 L 322.73174 -390.90553" />
    <path d="M 155.63566 -326.55697 A 500 288.67513 120 0 1 393.44242 -350.0807" />
    <path d="M 155.56349 449.07312 L 148.49242 453.1556" />
    <path d="M 393.44242 238.70109 A 500 288.67513 120 0 1 188.63279 468.16569" />
    <path d="M -96.45757 -67.23681 A 500 288.67513 120 0 1 141.42136 -318.35201" />
    <path d="M -204.99025 281.65049 A 500 288.67513 120 0 1 -106.45757 -49.9163" />
    <path d="M -169.70563 261.27891 L -204.99025 281.65049 L -212.06132 277.56801" />
    <path d="M -106.45757 515.77148 A 500 288.67513 120 0 1 -204.9888 298.06292" />
    <path d="M -81.50758 472.55682 L -106.45757 515.77148 L -113.52864 511.689" />
    <path d="M -212.05987 293.98044 A 500 288.67513 300 0 0 -113.52864 511.689" />
    <path d="M -113.52864 -53.99878 A 500 288.67513 300 0 0 -212.06132 277.56801" />
    <path d="M 598.55339 357.12197 L 608.55339 339.80146" />
    <path d="M 598.55339 357.12197 L 573.55339 342.68821" />
    <path d="M 252.02106 157.05143 A 500 288.67513 120 0 1 47.21143 386.51603" />
    <path d="M 14.2143 -408.20662 A 500 288.67513 120 0 1 252.02106 -431.73036" />
    <path d="M -237.87893 -148.88647 A 500 288.67513 120 0 1 0 -400.00167 L -7.07107 -404.08415 A 500 288.67513 300 0 0 -244.94999 -152.96895" />
    <path d="M 0 -359.2585 L 0 -400.00167" />
    <path d="M -346.41161 200.00083 A 500 288.67513 120 0 1 -247.87893 -131.56596" />
    <path d="M -311.12698 179.62925 L -346.41161 200.00083 L -353.48267 195.91835" />
    <path d="M -247.87893 434.12182 A 500 288.67513 120 0 1 -346.41015 216.41326" />
    <path d="M -238.32154 417.56793 L -247.87893 434.12182 L -254.94999 430.03934" />
    <path d="M -0.07217 416.37159 A 500 288.67513 120 0 1 -84.24814 451.20106" />
    <path d="M -353.48122 212.33078 A 500 288.67513 300 0 0 -254.94999 430.03934" />
    <path d="M -254.94999 -135.64844 A 500 288.67513 300 0 0 -353.48267 195.91835" />
    <path d="M 322.73174 197.87626 A 500 288.67513 120 0 1 117.92211 427.34086" />
    <path d="M 84.92498 -367.38179 A 500 288.67513 120 0 1 322.73174 -390.90553" />
    <path d="M -167.16825 -108.06164 A 500 288.67513 120 0 1 70.71068 -359.17684 L 63.63961 -363.25932 A 500 288.67513 300 0 0 -174.23932 -112.14412" />
    <path d="M 70.71068 -318.43367 L 70.71068 -359.17684" />
    <path d="M -275.70093 240.82566 A 500 288.67513 120 0 1 -177.16825 -90.74113" />
    <path d="M -240.41631 220.45408 L -275.70093 240.82566 L -282.77199 236.74318" />
    <path d="M -177.16825 474.94665 A 500 288.67513 120 0 1 -275.69948 257.23809" />
    <path d="M -167.61086 458.39276 L -177.16825 474.94665 L -184.23932 470.86417" />
    <path d="M 70.71068 457.15643 A 500 288.67513 120 0 1 -13.53746 492.02589" />
    <path d="M 70.71068 416.41326 L 70.71068 457.15643" />
    <path d="M 70.71068 416.41326 L 77.78175 412.33077" />
    <path d="M -282.77054 253.15561 A 500 288.67513 300 0 0 -184.23932 470.86417" />
    <path d="M -184.23932 -94.82361 A 500 288.67513 300 0 0 -282.77199 236.74318" />
    <path d="M 360.62446 -208.20663 L 360.62446 -167.3818" />
    <path d="M -346.48232 -616.45492 L 360.62446 -208.20663 L 346.48232 -200.04166 L 346.48232 -159.21683" />
    <path d="M 360.62446 567.46512 L 155.56349 449.07312" />
    <path d="M 346.48232 575.63009 L 360.62446 567.46512" />
    <path d="M 346.48232 575.63009 L 141.42136 457.23809" />
    <path d="M 77.70487 404.12142 L 35.35534 379.67091 L 35.35534 396.00084" />
    <path d="M 148.41555 444.94625 L 84.85281 408.24829" />
    <path d="M 360.62446 608.28995 L 360.62446 567.46512" />
    <path d="M 108.55339 51.12632 L 133.55339 65.56008" />
    <path d="M -598.55339 -357.12197 L 108.55339 51.12632 L 98.55339 68.44683 L 123.55339 82.88059" />
    <path d="M -360.62446 -567.46512 L -360.62446 -608.28995 L -346.48232 -616.45492" />
    <path d="M -40.14037 -382.43355 L -360.62446 -567.46512" />
    <path d="M 30.57031 -341.60872 L 0 -359.2585" />
    <path d="M 101.28099 -300.78389 L 70.71068 -318.43367" />
    <path d="M -360.62446 -608.28995 L 346.48232 -200.04166" />
    <path d="M -608.55339 -339.80146 L 98.55339 68.44683" />
    <path d="M -671.75144 -28.57738 L -707.10678 -8.16497 L 0 400.08332 L 0 416.41326 L 35.35534 396.00084" />
    <path d="M -351.26735 156.4542 L -671.75144 -28.57738" />
    <path d="M -280.55667 197.27903 L -311.12698 179.62925" />
    <path d="M -209.84599 238.10385 L -240.41631 220.45408" />
    <path d="M 35.35534 379.67091 L -169.70563 261.27891" />
    <path d="M 0 400.08332 L 35.35534 379.67091" />
    <path d="M -707.10678 8.16497 L 0 416.41326 L 24.98114 430.83612" />
    <path d="M -583.55339 182.70054 L -608.55339 226.00181 L 98.55339 634.2501 L 108.55339 640.0236 L 133.55339 596.72233" />
    <path d="M -333.97247 326.79614 L -583.55339 182.70054" />
    <path d="M 123.55339 590.94883 L -81.50758 472.55682" />
    <path d="M 98.55339 634.2501 L 123.55339 590.94883 L 133.55339 596.72233" />
    <path d="M 63.55924 412.28437 L 35.35534 396.00084" />
    <path d="M 134.26991 453.1092 L 70.71068 416.41326" />
    <path d="M 346.48232 616.45492 L 346.48232 575.63009" />
    <path d="M 70.63851 457.19642 L 95.69182 471.66095" />
    <path d="M 141.34919 498.02125 L 346.48232 616.45492 L 360.62446 608.28995" />
    <path d="M -608.55339 -339.80146 L -598.55339 -357.12197" />
    <path d="M -707.10678 8.16497 L -707.10678 -8.16497" />
</svg>