<svg version="1.1" xmlns="http://www.w3.org/2000/svg" viewBox="-843.1481933214458 -744.72841299265 1666.2454823752855 1491.4276463990382" fill="none" stroke="black" stroke-width="0.6%" vector-effect="non-scaling-stroke">
    <path d="M -87.33799 -519.44791 A 500 344.28331 124.55 0 1 161.36592 -495.83493 L 155.39317 -499.94757 A 500 344.28331 304.55 0 0 -93.31075 -523.56055" />
    <path d="M 172.70843 106.77991 A 500 344.28331 304.55 0 0 184.61644 88.36933" />
    <path d="M 248.13543 -40.69455 A 500 344.28331 304.55 0 0 262.66725 -85.1146" />
    <path d="M 276.76914 -146.21319 A 500 344.28331 304.55 0 0 280.36156 -169.85674" />
    <path d="M -58.66531 322.50938 A 500 344.28331 304.55 0 0 -37.85895 310.71877" />
    <path d="M 14.18895 275.74853 A 500 344.28331 304.55 0 0 50.5023 246.32653" />
    <path d="M 148.41472 140.94481 A 500 344.28331 304.55 0 0 161.36592 123.25254" />
    <path d="M -118.31131 328.30564 L -108.44835 324.53935" />
    <path d="M -164.77211 364.38499 A 500 344.28331 304.55 0 0 -162.44948 363.79238" />
    <path d="M -405.64586 327.63192 L -399.40572 318.56942" />
    <path d="M -516.42735 103.71525 A 500 344.28331 304.55 0 0 -405.64586 327.63192 L -411.61861 323.51928 A 500 344.28331 124.55 0 1 -522.4001 99.60261" />
    <path d="M -517.40659 64.32158 L -497.4359 56.69551 L -462.81182 80.5365" />
    <path d="M -405.64586 -267.17284 A 500 344.28331 304.55 0 0 -517.40659 64.32158 L -523.37934 60.20894 A 500 344.28331 124.55 0 1 -411.61861 -271.28548" />
    <path d="M -124.48908 -506.3095 A 500 344.28331 304.55 0 0 -394.30335 -283.64548" />
    <path d="M -124.48908 -484.93229 L -124.48908 -506.3095 L -130.46183 -510.42214" />
    <path d="M 155.12579 -486.77242 L 161.36592 -495.83493" />
    <path d="M 281.62962 -283.92081 A 500 344.28331 124.55 0 1 281.90457 -281.53959" />
    <path d="M 264.49847 -227.64605 L 264.49847 -217.08845" />
    <path d="M -116.46872 306.13895 A 450 309.85498 124.55 0 1 -119.01076 307.10008" />
    <path d="M -165.06007 321.17678 A 450 309.85498 124.55 0 1 -174.11399 323.19195" />
    <path d="M -221.34699 329.51691 A 450 309.85498 124.55 0 1 -222.53693 329.58208" />
    <path d="M -459.40778 171.16877 A 450 309.85498 124.55 0 1 -469.21926 136.22117" />
    <path d="M -477.17745 70.6448 A 450 309.85498 124.55 0 1 -377.28329 -247.64333" />
    <path d="M -365.94079 -264.11596 A 450 309.85498 124.55 0 1 -104.23063 -470.98299" />
    <path d="M -40.12991 -486.942 A 450 309.85498 124.55 0 1 -3.98158 -490.24321" />
    <path d="M 228.50968 -325.46944 A 450 309.85498 124.55 0 1 228.8733 -324.33454" />
    <path d="M 239.81429 -277.95291 A 450 309.85498 124.55 0 1 241.1616 -268.77581" />
    <path d="M 244.43861 -220.73465 A 450 309.85498 124.55 0 1 244.15931 -202.46961" />
    <path d="M 238.96717 -148.85439 A 450 309.85498 124.55 0 1 233.06167 -117.39551" />
    <path d="M 212.17554 -46.01098 A 450 309.85498 124.55 0 1 178.76074 29.29364" />
    <path d="M 91.13699 156.54893 A 450 309.85498 124.55 0 1 32.7074 214.6292" />
    <path d="M -26.52946 259.60669 A 450 309.85498 124.55 0 1 -53.81177 276.34621" />
    <path d="M -102.04712 300.32333 A 450 309.85498 124.55 0 1 -116.46872 306.13895" />
    <path d="M -413.05884 -743.72841 L 184.21662 -332.46447 L 184.21662 -310.91553 A 500 344.28331 304.55 0 0 176.19626 -307.93871 A 500 344.28331 304.55 0 0 168.1759 -304.79017 L 168.1759 -326.33911" />
    <path d="M -400.27611 -287.75812 A 500 344.28331 124.55 0 1 -130.46183 -510.42214" />
    <path d="M -119.00334 300.69588 A 450 309.85498 304.55 0 0 -101.17892 293.23592" />
    <path d="M -52.43817 267.95792 A 450 309.85498 304.55 0 0 -23.75706 249.62017" />
    <path d="M 38.11425 200.38346 A 450 309.85498 304.55 0 0 114.02129 117.26264" />
    <path d="M 150.22301 64.68716 A 450 309.85498 304.55 0 0 200.79593 -35.87789" />
    <path d="M 224.72124 -111.24295 A 450 309.85498 304.55 0 0 231.62081 -144.57874" />
    <path d="M 237.84795 -199.13019 A 450 309.85498 304.55 0 0 238.45843 -218.44309" />
    <path d="M 235.94561 -266.82064 A 450 309.85498 304.55 0 0 234.64022 -276.83206" />
    <path d="M 224.49966 -323.2586 A 450 309.85498 304.55 0 0 223.91598 -325.19145" />
    <path d="M -223.91598 325.19145 A 450 309.85498 304.55 0 0 -221.90208 325.04721" />
    <path d="M -174.91267 317.95845 A 450 309.85498 304.55 0 0 -165.09428 315.6065" />
    <path d="M 58.40061 -536.50145 L -157.36598 -685.07112 L -129.00972 -726.2527 L 468.26575 -314.98875" />
    <path d="M 454.0309 -294.31559 L 468.26575 -314.98875" />
    <path d="M 400.27611 -331.32935 L 394.03597 -322.26685" />
    <path d="M 400.27611 -331.32935 L 394.30335 -335.44199 A 500 344.28331 304.55 0 0 145.59944 -359.05497" />
    <path d="M 340.54856 -372.45574 L 334.30842 -363.39324" />
    <path d="M 340.54856 -372.45574 L 334.57581 -376.56838 A 500 344.28331 304.55 0 0 85.87189 -400.18137" />
    <path d="M 280.82101 -413.58214 L 274.58088 -404.51963" />
    <path d="M 280.82101 -413.58214 L 274.84826 -417.69478 A 500 344.28331 304.55 0 0 26.14434 -441.30776" />
    <path d="M 221.09347 -454.70853 L 214.85333 -445.64603" />
    <path d="M 221.09347 -454.70853 L 215.12071 -458.82117 A 500 344.28331 304.55 0 0 -33.5832 -482.43416" />
    <path d="M 208.77273 -255.45933 L 194.40711 -265.35102" />
    <path d="M 593.11693 -29.29842 L 583.18187 -25.50459" />
    <path d="M 536.90499 -29.51841 L 503.40865 -52.58287" />
    <path d="M 477.17745 -70.6448 L 443.6811 -93.70927" />
    <path d="M 387.95537 -132.08014 L 383.95356 -134.83566" />
    <path d="M 328.22783 -173.20654 L 324.22601 -175.96205" />
    <path d="M 268.50028 -214.33293 L 264.49847 -217.08845" />
    <path d="M 283.79609 -220.97121 L 271.1558 -229.6749" />
    <path d="M 224.06854 -262.09761 L 211.42825 -270.80129" />
    <path d="M 198.78028 -322.43642 L 205.32698 -317.92858" />
    <path d="M 522.4001 -99.60261 L 528.9468 -95.09477" />
    <path d="M 582.12765 -58.47622 L 588.67435 -53.96838" />
    <path d="M 582.94289 -42.58379 L 590.42456 -45.44076" />
    <path d="M 535.92457 -47.36396 L 503.40865 -69.75333 L 503.40865 -52.58287" />
    <path d="M 523.37934 -77.3794 L 503.40865 -69.75333" />
    <path d="M 476.19702 -88.49035 L 450.33844 -106.29571" />
    <path d="M 403.25118 -138.71842 L 390.61089 -147.42211" />
    <path d="M 343.52364 -179.84482 L 330.88334 -188.5485" />
    <path d="M 479.60825 -307.17868 L 465.43012 -286.58789" />
    <path d="M -89.865 -461.0913 L -124.48908 -484.93229" />
    <path d="M -149.59254 -502.21769 L -429.09956 -694.6769 L -429.09956 -737.60306 L 168.1759 -326.33911" />
    <path d="M 149.04519 -296.58572 L 114.42111 -320.42671" />
    <path d="M 114.42111 -341.80393 L 114.42111 -320.42671" />
    <path d="M 114.42111 -341.80393 L 108.44835 -345.91656" />
    <path d="M 89.31764 -337.71212 L 54.69356 -361.5531" />
    <path d="M 54.69356 -382.93032 L 54.69356 -361.5531" />
    <path d="M 54.69356 -382.93032 L 48.72081 -387.04296" />
    <path d="M 29.5901 -378.83851 L -5.03398 -402.6795" />
    <path d="M -5.03398 -424.05671 L -5.03398 -402.6795" />
    <path d="M -5.03398 -424.05671 L -11.00674 -428.16935" />
    <path d="M -30.13745 -419.96491 L -64.76153 -443.80589" />
    <path d="M -64.76153 -465.18311 L -64.76153 -443.80589" />
    <path d="M -64.76153 -465.18311 L -70.73429 -469.29575" />
    <path d="M -713.14869 -503.19173 L -115.87322 -91.92778 L -101.63838 -82.12614 A 500 344.28331 304.55 0 0 -112.98088 -65.65351 L -127.21573 -75.45515" />
    <path d="M -724.49119 -486.7191 L -127.21573 -75.45515" />
    <path d="M -802.04638 -153.0491 L -522.53936 39.4101" />
    <path d="M -802.04638 -153.0491 L -842.14819 -137.73571 L -244.87273 273.52823 L -224.74161 265.84091 A 500 344.28331 304.55 0 0 -224.74161 283.01137 L -244.87273 290.6987" />
    <path d="M -258.52571 221.20109 L -223.90163 245.04207" />
    <path d="M -258.52571 221.20109 L -278.4964 228.82715 L -284.46916 224.71452 A 500 344.28331 124.55 0 1 -172.70843 -106.77991" />
    <path d="M -318.25326 180.07469 L -283.62918 203.91568" />
    <path d="M -318.25326 180.07469 L -338.22395 187.70076 L -344.1967 183.58812 A 500 344.28331 124.55 0 1 -232.43597 -147.9063" />
    <path d="M -377.9808 138.9483 L -343.35672 162.78929" />
    <path d="M -377.9808 138.9483 L -397.9515 146.57437 L -403.92425 142.46173 A 500 344.28331 124.55 0 1 -292.16352 -189.03269" />
    <path d="M -437.70835 97.82191 L -403.08427 121.66289" />
    <path d="M -437.70835 97.82191 L -457.67904 105.44797 L -463.6518 101.33533 A 500 344.28331 124.55 0 1 -351.89107 -230.15909" />
    <path d="M -842.14819 -120.56525 L -244.87273 290.6987" />
    <path d="M -696.13493 97.37889 L -480.36834 245.94856" />
    <path d="M -696.13493 97.37889 L -724.49119 138.56047 L -127.21573 549.82441 L -115.87322 557.63448" />
    <path d="M -127.21573 549.82441 L -112.98088 529.15125 A 500 344.28331 304.55 0 0 -107.36635 533.13866" />
    <path d="M -160.49553 483.07499 L -166.73567 492.1375 L -172.70843 488.02486 A 500 344.28331 124.55 0 1 -283.48991 264.10819" />
    <path d="M -220.22308 441.9486 L -226.46322 451.0111 L -232.43597 446.89846 A 500 344.28331 124.55 0 1 -343.21746 222.9818" />
    <path d="M -279.95063 400.8222 L -286.19076 409.88471 L -292.16352 405.77207 A 500 344.28331 124.55 0 1 -402.94501 181.8554" />
    <path d="M -339.67817 359.69581 L -345.91831 368.75831 L -351.89107 364.64567 A 500 344.28331 124.55 0 1 -462.67255 140.72901" />
    <path d="M -101.69509 537.04369 L -115.87322 557.63448" />
    <path d="M -177.55929 294.12233 L -164.919 302.82601" />
    <path d="M -230.30907 300.72674 L -223.76237 305.23459" />
    <path d="M 93.31075 523.56055 L 99.85745 528.06839" />
    <path d="M 153.0383 564.68694 L 159.585 569.19479" />
    <path d="M 168.1759 567.78771 L 168.1759 559.77912" />
    <path d="M 114.42111 495.17028 L 146.93703 517.55966" />
    <path d="M 114.42111 495.17028 L 114.42111 516.5475" />
    <path d="M 61.35089 458.6279 L 87.20948 476.43326" />
    <path d="M 1.62335 417.50151 L 14.26364 426.20519" />
    <path d="M -58.1042 376.37511 L -45.46391 385.0788" />
    <path d="M -117.83175 335.24872 L -105.19145 343.9524" />
    <path d="M -104.44654 327.29486 L -108.44835 324.53935" />
    <path d="M -164.17408 286.16847 L -178.53971 276.27678" />
    <path d="M 184.21662 553.90958 L 184.21662 564.54435" />
    <path d="M 163.95817 512.10939 L 130.46183 489.04493" />
    <path d="M 104.23063 470.98299 L 70.73429 447.91853" />
    <path d="M 15.00856 409.54765 L 11.00674 406.79214" />
    <path d="M -44.71899 368.42126 L -48.72081 365.66574" />
    <path d="M -78.64556 -42.01136 L -53.25333 -24.52712" />
    <path d="M -18.91801 -0.88496 L 6.47421 16.59928" />
    <path d="M 40.80953 40.24143 L 66.20176 57.72567" />
    <path d="M 100.53708 81.36783 L 125.92931 98.85207" />
    <path d="M 468.26575 334.57351 L 460.00365 328.88451" />
    <path d="M 386.1547 278.03458 L 425.66834 305.24236" />
    <path d="M 326.42715 236.90819 L 365.94079 264.11596" />
    <path d="M 266.6996 195.78179 L 306.21324 222.98957" />
    <path d="M 206.97206 154.6554 L 246.4857 181.86317" />
    <path d="M 160.26463 122.49422 L 186.75815 140.73678" />
    <path d="M 198.10065 124.26415 L 171.60713 106.02159" />
    <path d="M 137.27181 82.37944 L 111.87958 64.8952" />
    <path d="M 77.54426 41.25304 L 52.15204 23.7688" />
    <path d="M 17.81672 0.12665 L -7.57551 -17.35759" />
    <path d="M -41.91083 -40.99975 L -67.30306 -58.48399" />
    <path d="M 471.34616 312.41188 L 479.60825 318.10088" />
    <path d="M 437.01084 288.76972 L 397.4972 261.56195" />
    <path d="M 377.28329 247.64333 L 337.76965 220.43556" />
    <path d="M 317.55575 206.51694 L 278.04211 179.30916" />
    <path d="M 257.8282 165.39054 L 218.31456 138.18277" />
    <path d="M -340.54856 -246.63172 A 500 344.28331 124.55 0 1 -70.73429 -469.29575" />
    <path d="M -59.27579 341.82228 A 450 309.85498 304.55 0 0 -41.45138 334.36231" />
    <path d="M 7.28938 309.08432 A 450 309.85498 304.55 0 0 35.97048 290.74657" />
    <path d="M 97.8418 241.50986 A 450 309.85498 304.55 0 0 260.52348 5.24851" />
    <path d="M 284.44879 -70.11656 A 450 309.85498 304.55 0 0 291.34835 -103.45235" />
    <path d="M 297.57549 -158.0038 A 450 309.85498 304.55 0 0 298.18598 -177.3167" />
    <path d="M 295.67315 -225.69424 A 450 309.85498 304.55 0 0 294.36776 -235.70566" />
    <path d="M 284.2272 -282.1322 A 450 309.85498 304.55 0 0 283.64353 -284.06506" />
    <path d="M -164.18843 366.31785 A 450 309.85498 304.55 0 0 -162.17453 366.1736" />
    <path d="M -115.18512 359.08485 A 450 309.85498 304.55 0 0 -105.36673 356.73289" />
    <path d="M -27.61045 -478.32152 A 500 344.28331 124.55 0 1 221.09347 -454.70853" />
    <path d="M 232.43597 147.9063 A 500 344.28331 304.55 0 0 322.3948 -43.9882" />
    <path d="M 336.49668 -105.08679 A 500 344.28331 304.55 0 0 340.08911 -128.73034" />
    <path d="M 206.97206 154.6554 L 218.31456 138.18277" />
    <path d="M 1.06224 363.63577 A 500 344.28331 304.55 0 0 21.86859 351.84516" />
    <path d="M 73.91649 316.87493 A 500 344.28331 304.55 0 0 221.09347 164.37893" />
    <path d="M -58.58376 369.43204 L -48.72081 365.66574" />
    <path d="M -105.04457 405.51139 A 500 344.28331 304.55 0 0 -102.72193 404.91877" />
    <path d="M -456.6998 144.84165 A 500 344.28331 304.55 0 0 -345.91831 368.75831" />
    <path d="M -345.91831 -226.04645 A 500 344.28331 304.55 0 0 -457.67904 105.44797" />
    <path d="M -64.76153 -465.18311 A 500 344.28331 304.55 0 0 -334.57581 -242.51908" />
    <path d="M 341.35717 -242.79442 A 500 344.28331 124.55 0 1 341.63212 -240.41319" />
    <path d="M 324.22601 -186.51966 L 324.22601 -175.96205" />
    <path d="M -56.74117 347.26534 A 450 309.85498 124.55 0 1 -59.28321 348.22647" />
    <path d="M -105.33252 362.30318 A 450 309.85498 124.55 0 1 -114.38644 364.31834" />
    <path d="M -161.61944 370.64331 A 450 309.85498 124.55 0 1 -162.80938 370.70847" />
    <path d="M -399.68023 212.29516 A 450 309.85498 124.55 0 1 -409.49171 177.34756" />
    <path d="M -417.4499 111.7712 A 450 309.85498 124.55 0 1 -317.55575 -206.51694" />
    <path d="M -306.21324 -222.98957 A 450 309.85498 124.55 0 1 -44.50308 -429.8566" />
    <path d="M 19.59764 -445.8156 A 450 309.85498 124.55 0 1 55.74597 -449.11681" />
    <path d="M 288.23723 -284.34304 A 450 309.85498 124.55 0 1 288.60085 -283.20815" />
    <path d="M 299.54184 -236.82652 A 450 309.85498 124.55 0 1 300.88914 -227.64942" />
    <path d="M 304.16616 -179.60825 A 450 309.85498 124.55 0 1 303.88686 -161.34322" />
    <path d="M 298.69471 -107.72799 A 450 309.85498 124.55 0 1 292.78922 -76.26912" />
    <path d="M 271.90308 -4.88459 A 450 309.85498 124.55 0 1 92.43495 255.7556" />
    <path d="M 33.19808 300.73309 A 450 309.85498 124.55 0 1 5.91577 317.47261" />
    <path d="M -42.31957 341.44972 A 450 309.85498 124.55 0 1 -56.74117 347.26534" />
    <path d="M -280.82101 -205.50533 A 500 344.28331 124.55 0 1 -11.00674 -428.16935" />
    <path d="M 0.45176 382.94867 A 450 309.85498 304.55 0 0 18.27617 375.48871" />
    <path d="M 67.01692 350.21071 A 450 309.85498 304.55 0 0 351.0759 -62.32595" />
    <path d="M 357.30304 -116.87741 A 450 309.85498 304.55 0 0 357.91352 -136.1903" />
    <path d="M 355.4007 -184.56785 A 450 309.85498 304.55 0 0 354.09531 -194.57927" />
    <path d="M 343.95475 -241.00581 A 450 309.85498 304.55 0 0 343.37107 -242.93866" />
    <path d="M -104.46089 407.44424 A 450 309.85498 304.55 0 0 -102.44698 407.3" />
    <path d="M -55.45758 400.21124 A 450 309.85498 304.55 0 0 -45.63918 397.85929" />
    <path d="M 32.1171 -437.19512 A 500 344.28331 124.55 0 1 280.82101 -413.58214" />
    <path d="M 292.16352 189.03269 A 500 344.28331 304.55 0 0 399.81666 -87.60395" />
    <path d="M 266.6996 195.78179 L 278.04211 179.30916" />
    <path d="M 60.78979 404.76217 A 500 344.28331 304.55 0 0 280.82101 205.50533" />
    <path d="M 1.14378 410.55843 L 11.00674 406.79214" />
    <path d="M -45.31702 446.63778 A 500 344.28331 304.55 0 0 -42.99438 446.04517" />
    <path d="M -396.97225 185.96804 A 500 344.28331 304.55 0 0 -286.19076 409.88471" />
    <path d="M -286.19076 -184.92006 A 500 344.28331 304.55 0 0 -397.9515 146.57437" />
    <path d="M -5.03398 -424.05671 A 500 344.28331 304.55 0 0 -274.84826 -201.39269" />
    <path d="M 401.08472 -201.66802 A 500 344.28331 124.55 0 1 401.35966 -199.2868" />
    <path d="M 383.95356 -145.39326 L 383.95356 -134.83566" />
    <path d="M 2.98638 388.39174 A 450 309.85498 124.55 0 1 0.44433 389.35287" />
    <path d="M -45.60498 403.42957 A 450 309.85498 124.55 0 1 -54.6589 405.44474" />
    <path d="M -101.89189 411.7697 A 450 309.85498 124.55 0 1 -103.08183 411.83487" />
    <path d="M -339.95269 253.42155 A 450 309.85498 124.55 0 1 -349.76417 218.47396" />
    <path d="M -357.72235 152.89759 A 450 309.85498 124.55 0 1 -257.8282 -165.39054" />
    <path d="M -246.4857 -181.86317 A 450 309.85498 124.55 0 1 15.22447 -388.7302" />
    <path d="M 79.32519 -404.68921 A 450 309.85498 124.55 0 1 115.47352 -407.99042" />
    <path d="M 347.96477 -243.21665 A 450 309.85498 124.55 0 1 348.32839 -242.08176" />
    <path d="M 359.26938 -195.70012 A 450 309.85498 124.55 0 1 360.61669 -186.52302" />
    <path d="M 363.8937 -138.48186 A 450 309.85498 124.55 0 1 363.61441 -120.21682" />
    <path d="M 358.42226 -66.6016 A 450 309.85498 124.55 0 1 65.64332 358.599" />
    <path d="M 17.40798 382.57612 A 450 309.85498 124.55 0 1 2.98638 388.39174" />
    <path d="M -221.09347 -164.37893 A 500 344.28331 124.55 0 1 48.72081 -387.04296" />
    <path d="M 60.1793 424.07507 A 450 309.85498 304.55 0 0 417.64107 -95.06391" />
    <path d="M 415.12825 -143.44145 A 450 309.85498 304.55 0 0 413.82286 -153.45287" />
    <path d="M 403.6823 -199.87941 A 450 309.85498 304.55 0 0 403.09862 -201.81227" />
    <path d="M -44.73334 448.57064 A 450 309.85498 304.55 0 0 -42.71944 448.42639" />
    <path d="M 4.26997 441.33764 A 450 309.85498 304.55 0 0 14.08836 438.98568" />
    <path d="M 91.84464 -396.06873 A 500 344.28331 124.55 0 1 340.54856 -372.45574" />
    <path d="M 351.89107 230.15909 A 500 344.28331 304.55 0 0 462.81182 -80.5365" />
    <path d="M 326.42715 236.90819 L 337.76965 220.43556" />
    <path d="M 89.865 461.0913 A 500 344.28331 304.55 0 0 340.54856 246.63172" />
    <path d="M 60.87133 451.68483 L 70.73429 447.91853" />
    <path d="M 14.41053 487.76418 A 500 344.28331 304.55 0 0 16.73316 487.17156" />
    <path d="M -337.24471 227.09444 A 500 344.28331 304.55 0 0 -226.46322 451.0111" />
    <path d="M -226.46322 -143.79366 A 500 344.28331 304.55 0 0 -338.22395 187.70076" />
    <path d="M 54.69356 -382.93032 A 500 344.28331 304.55 0 0 -215.12071 -160.26629" />
    <path d="M 460.81226 -160.54163 A 500 344.28331 124.55 0 1 461.08721 -158.1604" />
    <path d="M 443.6811 -104.26687 L 443.6811 -93.70927" />
    <path d="M 62.71392 429.51813 A 450 309.85498 124.55 0 1 60.17188 430.47926" />
    <path d="M 14.12257 444.55597 A 450 309.85498 124.55 0 1 5.06865 446.57113" />
    <path d="M -42.16435 452.8961 A 450 309.85498 124.55 0 1 -43.35429 452.96126" />
    <path d="M -280.22514 294.54795 A 450 309.85498 124.55 0 1 -290.03662 259.60035" />
    <path d="M -297.99481 194.02399 A 450 309.85498 124.55 0 1 -198.10065 -124.26415" />
    <path d="M -186.75815 -140.73678 A 450 309.85498 124.55 0 1 74.95201 -347.60381" />
    <path d="M 139.05273 -363.56281 A 450 309.85498 124.55 0 1 175.20106 -366.86402" />
    <path d="M 407.69232 -202.09025 A 450 309.85498 124.55 0 1 408.05594 -200.95536" />
    <path d="M 418.99693 -154.57373 A 450 309.85498 124.55 0 1 420.34423 -145.39663" />
    <path d="M 423.62125 -97.35546 A 450 309.85498 124.55 0 1 62.71392 429.51813" />
    <path d="M -161.36592 -123.25254 A 500 344.28331 124.55 0 1 108.44835 -345.91656" />
    <path d="M 116.46872 466.53189 A 450 309.85498 304.55 0 0 473.5504 -112.32648" />
    <path d="M 463.40984 -158.75302 A 450 309.85498 304.55 0 0 462.82617 -160.68588" />
    <path d="M 14.99421 489.69703 A 450 309.85498 304.55 0 0 17.00811 489.55278" />
    <path d="M 63.99751 482.46403 A 450 309.85498 304.55 0 0 116.46872 466.53189" />
    <path d="M 151.57219 -354.94233 A 500 344.28331 124.55 0 1 400.27611 -331.32935" />
    <path d="M 411.61861 271.28548 A 500 344.28331 304.55 0 0 522.53936 -39.4101" />
    <path d="M 386.1547 278.03458 L 397.4972 261.56195" />
    <path d="M 149.59254 502.21769 A 500 344.28331 304.55 0 0 400.27611 287.75812" />
    <path d="M 114.42111 495.17028 L 130.46183 489.04493" />
    <path d="M 74.13807 528.89057 A 500 344.28331 304.55 0 0 114.42111 516.5475" />
    <path d="M -277.51716 268.22083 A 500 344.28331 304.55 0 0 -166.73567 492.1375" />
    <path d="M -166.73567 -102.66727 A 500 344.28331 304.55 0 0 -278.4964 228.82715" />
    <path d="M 114.42111 -341.80393 A 500 344.28331 304.55 0 0 -155.39317 -119.1399" />
    <path d="M 520.53981 -119.41523 A 500 344.28331 124.55 0 1 523.37934 -77.3794" />
    <path d="M 122.44147 470.64452 A 450 309.85498 124.55 0 1 64.7962 487.69753" />
    <path d="M 17.5632 494.02249 A 450 309.85498 124.55 0 1 16.37326 494.08766" />
    <path d="M -220.49759 335.67434 A 450 309.85498 124.55 0 1 -233.14873 286.22174" />
    <path d="M -238.26726 235.15038 A 450 309.85498 124.55 0 1 -138.37311 -83.13775" />
    <path d="M -127.0306 -99.61038 A 450 309.85498 124.55 0 1 134.67956 -306.47741" />
    <path d="M 184.21662 -319.91475 A 450 309.85498 124.55 0 1 234.92861 -325.73763" />
    <path d="M 467.41987 -160.96386 A 450 309.85498 124.55 0 1 467.78349 -159.82897" />
    <path d="M 478.72448 -113.44733 A 450 309.85498 124.55 0 1 122.44147 470.64452" />
    <path d="M 168.1759 -304.79017 A 500 344.28331 304.55 0 0 -101.63838 -82.12614" />
    <path d="M -112.98088 -65.65351 A 500 344.28331 304.55 0 0 -224.74161 265.84091" />
    <path d="M -224.74161 283.01137 A 500 344.28331 304.55 0 0 -112.98088 529.15125" />
    <path d="M 454.0309 -294.31559 A 500 344.28331 304.55 0 0 184.21662 -310.91553" />
    <path d="M 176.19626 507.65828 A 450 309.85498 124.55 0 1 74.72175 530.82343" />
    <path d="M 522.55371 -119.55948 A 450 309.85498 124.55 0 1 176.19626 507.65828" />
    <path d="M 184.21662 -332.46447 L 168.1759 -326.33911" />
    <path d="M -429.09956 -737.60306 L -413.05884 -743.72841" />
    <path d="M 479.60825 -307.17868 L 468.26575 -314.98875" />
    <path d="M 459.75887 -290.49293 A 500 344.28331 304.55 0 0 454.0309 -294.31559" />
    <path d="M -115.87322 -91.92778 L -127.21573 -75.45515" />
    <path d="M -724.49119 -486.7191 L -713.14869 -503.19173" />
    <path d="M -244.87273 273.52823 L -244.87273 290.6987" />
    <path d="M -842.14819 -120.56525 L -842.14819 -137.73571" />
    <path d="M 468.26575 334.57351 L 479.60825 318.10088" />
    <path d="M 182.16902 -303.82607 A 500 344.28331 124.55 0 1 465.73162 -286.38029 L 459.75887 -290.49293" />
    <path d="M 465.73162 -286.38029 A 500 344.28331 124.55 0 1 491.33236 -266.01933" />
    <path d="M 578.86287 -88.91598 A 500 344.28331 124.55 0 1 123.43667 572.496" />
    <path d="M -73.23954 553.9041 A 500 344.28331 124.55 0 1 -101.39359 537.2513 L -107.36635 533.13866" />
    <path d="M -101.39359 537.2513 A 500 344.28331 124.55 0 1 182.16902 -303.82607" />
    <path d="M 182.16902 511.77092 A 450 309.85498 304.55 0 0 527.14741 -119.83747" />
    <path d="M 294.65616 -284.61123 A 450 309.85498 304.55 0 0 -160.77005 376.80074" />
    <path d="M 76.10081 535.21405 A 450 309.85498 304.55 0 0 182.16902 511.77092" />
    <path d="M 241.89656 -262.69968 A 500 344.28331 124.55 0 1 525.45917 -245.2539 L 519.48642 -249.36653 A 500 344.28331 304.55 0 0 235.92381 -266.81231 A 500 344.28331 304.55 0 0 -47.6388 574.26505" />
    <path d="M 525.45917 -245.2539 A 500 344.28331 124.55 0 1 551.05991 -224.89294" />
    <path d="M 638.59042 -47.78958 A 500 344.28331 124.55 0 1 183.16422 613.62239" />
    <path d="M -13.51199 595.03049 A 500 344.28331 124.55 0 1 -41.66604 578.37769 L -47.6388 574.26505" />
    <path d="M -41.66604 578.37769 A 500 344.28331 124.55 0 1 241.89656 -262.69968" />
    <path d="M 235.92381 548.78467 A 450 309.85498 124.55 0 1 90.67878 571.58329" />
    <path d="M 566.32423 -119.19295 A 450 309.85498 124.55 0 1 235.92381 548.78467" />
    <path d="M 241.89656 552.89731 A 450 309.85498 304.55 0 0 570.45164 -118.79373" />
    <path d="M 354.3837 -243.48484 A 450 309.85498 304.55 0 0 -101.0425 417.92713" />
    <path d="M 92.52413 575.29671 A 450 309.85498 304.55 0 0 241.89656 552.89731" />
    <path d="M 301.62411 -221.57328 A 500 344.28331 124.55 0 1 585.18672 -204.1275 L 579.21396 -208.24014 A 500 344.28331 304.55 0 0 295.65136 -225.68592 A 500 344.28331 304.55 0 0 12.08875 615.39145" />
    <path d="M 585.18672 -204.1275 A 500 344.28331 124.55 0 1 610.78746 -183.76654" />
    <path d="M 698.31797 -6.66319 A 500 344.28331 124.55 0 1 242.89176 654.74879" />
    <path d="M 46.21555 636.15688 A 500 344.28331 124.55 0 1 18.0615 619.50409 L 12.08875 615.39145" />
    <path d="M 18.0615 619.50409 A 500 344.28331 124.55 0 1 301.62411 -221.57328" />
    <path d="M 295.65136 589.91107 A 450 309.85498 124.55 0 1 110.98451 606.02755" />
    <path d="M 605.74604 -112.51081 A 450 309.85498 124.55 0 1 295.65136 589.91107" />
    <path d="M 301.62411 594.02371 A 450 309.85498 304.55 0 0 609.47038 -111.52622" />
    <path d="M 414.11125 -202.35845 A 450 309.85498 304.55 0 0 -41.31496 459.05353" />
    <path d="M 113.23294 609.1556 A 450 309.85498 304.55 0 0 301.62411 594.02371" />
    <path d="M 361.35166 -180.44689 A 500 344.28331 124.55 0 1 644.91426 -163.00111 L 638.94151 -167.11375 A 500 344.28331 304.55 0 0 355.3789 -184.55953 A 500 344.28331 304.55 0 0 71.81629 656.51784" />
    <path d="M 644.91426 -163.00111 A 500 344.28331 124.55 0 1 670.515 -142.64015" />
    <path d="M 758.04551 34.46321 A 500 344.28331 124.55 0 1 302.61931 695.87518" />
    <path d="M 105.9431 677.28328 A 500 344.28331 124.55 0 1 77.78905 660.63048 L 71.81629 656.51784" />
    <path d="M 77.78905 660.63048 A 500 344.28331 124.55 0 1 361.35166 -180.44689" />
    <path d="M 355.3789 631.03746 A 450 309.85498 124.55 0 1 135.14577 634.87247" />
    <path d="M 641.31233 -100.22934 A 450 309.85498 124.55 0 1 355.3789 631.03746" />
    <path d="M 361.35166 635.1501 A 450 309.85498 304.55 0 0 644.66845 -98.70999" />
    <path d="M 473.8388 -161.23205 A 450 309.85498 304.55 0 0 18.41259 500.17992" />
    <path d="M 137.76241 637.46576 A 450 309.85498 304.55 0 0 361.35166 635.1501" />
    <path d="M 421.0792 -139.32049 A 500 344.28331 124.55 0 1 704.64181 -121.87471 L 698.66906 -125.98735 A 500 344.28331 304.55 0 0 415.10645 -143.43313 A 500 344.28331 304.55 0 0 131.54384 697.64424" />
    <path d="M 704.64181 -121.87471 A 500 344.28331 124.55 0 1 137.5166 701.75688 L 131.54384 697.64424" />
    <path d="M 137.5166 701.75688 A 500 344.28331 124.55 0 1 421.0792 -139.32049" />
    <path d="M 415.10645 672.16386 A 450 309.85498 124.55 0 1 162.90395 658.4936" />
    <path d="M 673.2817 -82.72407 A 450 309.85498 124.55 0 1 415.10645 672.16386" />
    <path d="M 421.0792 676.2765 A 450 309.85498 304.55 0 0 676.28555 -80.69313 A 450 309.85498 304.55 0 0 165.87286 660.5753 A 450 309.85498 304.55 0 0 421.0792 676.2765 Z" />
</svg>